<?xml version="1.0" encoding="utf-8"?>
<!-- Generator: Adobe Illustrator 25.0.1, SVG Export Plug-In . SVG Version: 6.00 Build 0)  -->
<svg version="1.0" id="Layer_1" xmlns="http://www.w3.org/2000/svg" xmlns:xlink="http://www.w3.org/1999/xlink" x="0px" y="0px"
	 viewBox="0 0 1080 1080" enable-background="new 0 0 1080 1080" xml:space="preserve">
<pattern  width="72" height="72" patternUnits="userSpaceOnUse" id="_x31_0_lpi_50_x25_" viewBox="72.2 -72 72 72" overflow="visible">
	<g>
		<rect x="72.2" y="-72" fill="none" width="72" height="72"/>
		<g>
			<line fill="none" stroke="#FCEFD0" stroke-width="3.6" x1="144" y1="-3.6" x2="216.5" y2="-3.6"/>
			<line fill="none" stroke="#FCEFD0" stroke-width="3.6" x1="144" y1="-18" x2="216.5" y2="-18"/>
			<line fill="none" stroke="#FCEFD0" stroke-width="3.6" x1="144" y1="-32.4" x2="216.5" y2="-32.4"/>
			<line fill="#C1272D" stroke="#FCEFD0" stroke-width="3.6" x1="144" y1="-46.8" x2="216.5" y2="-46.8"/>
			<line fill="none" stroke="#FCEFD0" stroke-width="3.6" x1="144" y1="-61.2" x2="216.5" y2="-61.2"/>
			<line fill="none" stroke="#FCEFD0" stroke-width="3.6" x1="144" y1="-10.8" x2="216.5" y2="-10.8"/>
			<line fill="none" stroke="#FCEFD0" stroke-width="3.6" x1="144" y1="-25.2" x2="216.5" y2="-25.2"/>
			<line fill="none" stroke="#FCEFD0" stroke-width="3.6" x1="144" y1="-39.6" x2="216.5" y2="-39.6"/>
			<line fill="none" stroke="#FCEFD0" stroke-width="3.6" x1="144" y1="-54" x2="216.5" y2="-54"/>
			<line fill="none" stroke="#FCEFD0" stroke-width="3.6" x1="144" y1="-68.4" x2="216.5" y2="-68.4"/>
		</g>
		<g>
			<line fill="none" stroke="#FCEFD0" stroke-width="3.6" x1="72" y1="-3.6" x2="144.5" y2="-3.6"/>
			<line fill="none" stroke="#FCEFD0" stroke-width="3.6" x1="72" y1="-18" x2="144.5" y2="-18"/>
			<line fill="none" stroke="#FCEFD0" stroke-width="3.6" x1="72" y1="-32.4" x2="144.5" y2="-32.4"/>
			<line fill="#C1272D" stroke="#FCEFD0" stroke-width="3.6" x1="72" y1="-46.8" x2="144.5" y2="-46.8"/>
			<line fill="none" stroke="#FCEFD0" stroke-width="3.6" x1="72" y1="-61.2" x2="144.5" y2="-61.2"/>
			<line fill="none" stroke="#FCEFD0" stroke-width="3.6" x1="72" y1="-10.8" x2="144.5" y2="-10.8"/>
			<line fill="none" stroke="#FCEFD0" stroke-width="3.6" x1="72" y1="-25.2" x2="144.5" y2="-25.2"/>
			<line fill="none" stroke="#FCEFD0" stroke-width="3.6" x1="72" y1="-39.6" x2="144.5" y2="-39.6"/>
			<line fill="none" stroke="#FCEFD0" stroke-width="3.6" x1="72" y1="-54" x2="144.5" y2="-54"/>
			<line fill="none" stroke="#FCEFD0" stroke-width="3.6" x1="72" y1="-68.4" x2="144.5" y2="-68.4"/>
		</g>
		<g>
			<line fill="none" stroke="#FCEFD0" stroke-width="3.6" x1="0" y1="-3.6" x2="72.5" y2="-3.6"/>
			<line fill="none" stroke="#FCEFD0" stroke-width="3.6" x1="0" y1="-18" x2="72.5" y2="-18"/>
			<line fill="none" stroke="#FCEFD0" stroke-width="3.6" x1="0" y1="-32.4" x2="72.5" y2="-32.4"/>
			<line fill="#C1272D" stroke="#FCEFD0" stroke-width="3.6" x1="0" y1="-46.8" x2="72.5" y2="-46.8"/>
			<line fill="none" stroke="#FCEFD0" stroke-width="3.6" x1="0" y1="-61.2" x2="72.5" y2="-61.2"/>
			<line fill="none" stroke="#FCEFD0" stroke-width="3.6" x1="0" y1="-10.8" x2="72.5" y2="-10.8"/>
			<line fill="none" stroke="#FCEFD0" stroke-width="3.6" x1="0" y1="-25.2" x2="72.5" y2="-25.2"/>
			<line fill="none" stroke="#FCEFD0" stroke-width="3.6" x1="0" y1="-39.6" x2="72.5" y2="-39.6"/>
			<line fill="none" stroke="#FCEFD0" stroke-width="3.6" x1="0" y1="-54" x2="72.5" y2="-54"/>
			<line fill="none" stroke="#FCEFD0" stroke-width="3.6" x1="0" y1="-68.4" x2="72.5" y2="-68.4"/>
		</g>
	</g>
</pattern>
<pattern  id="SVGID_1_" xlink:href="#_x31_0_lpi_50_x25_" patternTransform="matrix(0.5 -0.866 0.866 0.5 1973.9844 -9840.6455)">
</pattern>
<path fill="url(#SVGID_1_)" d="M163,309.4c0-5.5-2.1-11.5-8.1-15.6c-6.1-4-14.1-6.1-28.3-6.1c-30.9,0.8-38.3,14.1-38.3,24.2
	c0,10.1,10.1,24.2,22.2,22.2s12.1-6.1,20.2-8.1s16.1,2,12.1,14.1c-4,12.1-48.4,22.2-60.5-2c-12.1-24.2-11.5-61.1,58.5-58.5
	c14.1,0.5,24.2,2,36.3,2c12.1,0,31.7,1.5,31.7,1.5c13.7,0,25.6,2.5,35.5,7.5c12.6,6.3,19,15.7,19,28.3c0,5.8-2,10.7-6.1,14.7
	c-3.1,3.1-7.8,5.9-14.1,8.5c13.2,2.6,23.7,6.9,31.5,13.1c9.7,7.7,14.5,17.6,14.5,29.7c0,12.2-4.3,21.7-12.9,28.5
	c-10.6,8.2-27.8,12.3-51.7,12.3h-70.6c-1.6,0-3-0.6-4.2-1.8c-1.2-1.2-1.8-2.6-1.8-4c0-1.7,0.4-3.1,1.2-4c0.9-1.5,3.4-2.7,7.3-3.6
	c3.9-0.9,5.9-3.8,5.9-8.7c0-2.8,0.1-7.7,0.4-14.7c0.3-7,0.4-10.7,0.4-11.1C163,377.6,163,314.9,163,309.4z M223,303.8
	c-3.2-4-7.9-6.1-13.9-6.1c-4.4,0-7.4,1-8.9,2.9c-1.5,2-2.2,5.2-2.2,9.8v11.1c0,3,0.1,5.2,0.4,6.7c0.9,4.7,3.3,7.1,7.1,7.1
	c6.5,0,11.5-1.1,15.1-3.4c4.4-2.8,6.7-7.3,6.7-13.3C227.2,312.3,225.8,307.4,223,303.8z M237,403.1c5.9-5.1,8.8-12.6,8.8-22.6
	c0-10.9-3-19.1-9.1-24.6c-6.1-5.5-14.5-8.3-25.4-8.3c-5.5,0-9.1,1.3-10.8,4c-1.7,2.7-2.5,7-2.5,12.9V399c0,5,1.3,8.3,4,9.9
	c2,1.2,5.7,1.8,11.1,1.8C223.2,410.7,231.1,408.2,237,403.1z"/>
<pattern  id="SVGID_2_" xlink:href="#_x31_0_lpi_50_x25_" patternTransform="matrix(0.5 -0.866 0.866 0.5 1973.9844 -9840.6455)">
</pattern>
<path fill="url(#SVGID_2_)" d="M386.6,344.8c12.1,10.6,18.2,23.1,18.2,37.6c0,15.1-5.9,26.6-17.6,34.5c-10.2,7-23.2,10.5-38.9,10.5
	c-16.1,0-29.2-4-39.1-12.1c-10.8-8.7-16.1-21.1-16.1-36.9c0-15.1,5.1-27.1,15.2-36c10.2-8.9,22.9-13.4,38.2-13.4
	C361.1,329,374.5,334.3,386.6,344.8z M330.5,395c7.3,13.1,15.7,19.6,25.2,19.6c5.9,0,10.5-2,13.7-5.9c3.2-3.9,4.8-8.9,4.8-14.9
	c0-10.6-3.3-21.9-9.9-33.9c-7.5-13.7-16.2-20.6-26-20.6c-5.9,0-10.4,2.5-13.5,7.5c-2.6,4.2-3.8,9.4-3.8,15.7
	C321,372.8,324.2,383.7,330.5,395z"/>
<pattern  id="SVGID_3_" xlink:href="#_x31_0_lpi_50_x25_" patternTransform="matrix(0.5 -0.866 0.866 0.5 1973.9844 -9840.6455)">
</pattern>
<path fill="url(#SVGID_3_)" d="M449.8,330.6c0.4,1.1,1.7,1.8,3.8,2.1c2.2,0.3,4.1,0.4,5.9,0.3h6.6c2.2,0,4.5-0.1,6.8-0.2h1.8
	c1.1,0,2.3,0,3.5,0.1c1.3,0.1,2.4,0.3,3.3,0.7l0.6,2.6c0,1.6-0.4,3.8-1.1,6.5c-0.7,2.7-1.5,4.2-2.2,4.6c-0.7,0.4-2,0.7-3.7,0.8
	c-1.7,0.1-2.9,0.2-3.4,0.2h-6.9c-2.3,0-4.5-0.1-6.7-0.2l-5.2,0.2c-0.8,0.5-1.3,0.9-1.6,1c-0.9,0.7-1.4,1.6-1.4,2.8v46
	c0,4,0.8,7.2,2.4,9.6c1.6,2.4,4.4,3.5,8.5,3.5c2.2,0,4.5-0.7,7.1-2c6.5-3.4,10.1-5,10.9-5c1.3,0,2.6,0.7,3.6,2
	c0.5,0.7,0.8,1.5,0.8,2.4c0,5.8-4.8,10.6-14.5,14.5c-7.8,3.1-15.3,4.6-22.4,4.6c-5.6,0-11.2-1.4-16.7-4.2c-6.6-3.4-9.9-7.7-9.9-12.9
	c0-4.2,0.5-10.2,1.5-18c1-7.8,1.5-13.3,1.5-16.3V374c0-2.4,0-4.8-0.1-7.3c-0.1-2.4-0.1-4.9-0.1-7.5V357c0-2.8-0.5-4.9-1.4-6.4
	c-0.9-1.4-2.8-2.1-5.4-2.1l-6.1,0.4c-3.5,0-5.2-1.7-5.2-5.2c0-0.5,0.2-1.2,0.5-2c0.3-0.8,1-1.7,1.9-2.8c1.9-2.6,4.1-5,6.7-7.5
	c4.4-4.3,6.9-6.7,7.3-7.1c3-3.2,5.9-6.5,8.8-9.7c2.9-3.2,5.6-6.8,8.2-10.7c0.7-1.1,1.2-2,1.6-2.7c0.4-0.7,0.9-1.4,1.4-1.9
	c1.2-1.5,2.8-2.2,4.6-2.2c1.5,0,2.6,0.6,3.4,1.7c0.8,1.1,1.2,3.2,1.2,6.2l-0.2,22.8L449.8,330.6z"/>
<pattern  id="SVGID_4_" xlink:href="#_x31_0_lpi_50_x25_" patternTransform="matrix(0.5 -0.866 0.866 0.5 1973.9844 -9840.6455)">
</pattern>
<path fill="url(#SVGID_4_)" d="M524,330.6c0.4,1.1,1.7,1.8,3.8,2.1c2.2,0.3,4.1,0.4,5.9,0.3h6.6c2.2,0,4.5-0.1,6.8-0.2h1.8
	c1.1,0,2.3,0,3.5,0.1c1.3,0.1,2.4,0.3,3.3,0.7l0.6,2.6c0,1.6-0.4,3.8-1.1,6.5c-0.7,2.7-1.5,4.2-2.2,4.6c-0.7,0.4-2,0.7-3.7,0.8
	c-1.7,0.1-2.9,0.2-3.4,0.2h-6.9c-2.3,0-4.5-0.1-6.7-0.2l-5.2,0.2c-0.8,0.5-1.3,0.9-1.6,1c-0.9,0.7-1.4,1.6-1.4,2.8v46
	c0,4,0.8,7.2,2.4,9.6c1.6,2.4,4.4,3.5,8.5,3.5c2.2,0,4.5-0.7,7.1-2c6.5-3.4,10.1-5,10.9-5c1.3,0,2.6,0.7,3.6,2
	c0.5,0.7,0.8,1.5,0.8,2.4c0,5.8-4.8,10.6-14.5,14.5c-7.8,3.1-15.3,4.6-22.4,4.6c-5.6,0-11.2-1.4-16.7-4.2c-6.6-3.4-9.9-7.7-9.9-12.9
	c0-4.2,0.5-10.2,1.5-18c1-7.8,1.5-13.3,1.5-16.3V374c0-2.4,0-4.8-0.1-7.3c-0.1-2.4-0.1-4.9-0.1-7.5V357c0-2.8-0.5-4.9-1.4-6.4
	c-0.9-1.4-2.8-2.1-5.4-2.1l-6.1,0.4c-3.5,0-5.2-1.7-5.2-5.2c0-0.5,0.2-1.2,0.5-2c0.3-0.8,1-1.7,1.9-2.8c1.9-2.6,4.1-5,6.7-7.5
	c4.4-4.3,6.9-6.7,7.3-7.1c3-3.2,5.9-6.5,8.8-9.7c2.9-3.2,5.6-6.8,8.2-10.7c0.7-1.1,1.2-2,1.6-2.7c0.4-0.7,0.9-1.4,1.4-1.9
	c1.2-1.5,2.8-2.2,4.6-2.2c1.5,0,2.6,0.6,3.4,1.7c0.8,1.1,1.2,3.2,1.2,6.2l-0.2,22.8L524,330.6z"/>
<pattern  id="SVGID_5_" xlink:href="#_x31_0_lpi_50_x25_" patternTransform="matrix(0.5 -0.866 0.866 0.5 1973.9844 -9840.6455)">
</pattern>
<path fill="url(#SVGID_5_)" d="M650.3,344.8c12.1,10.6,18.2,23.1,18.2,37.6c0,15.1-5.9,26.6-17.6,34.5c-10.2,7-23.2,10.5-38.9,10.5
	c-16.1,0-29.2-4-39.1-12.1c-10.8-8.7-16.1-21.1-16.1-36.9c0-15.1,5.1-27.1,15.2-36c10.2-8.9,22.9-13.4,38.2-13.4
	C624.8,329,638.2,334.3,650.3,344.8z M594.2,395c7.3,13.1,15.7,19.6,25.2,19.6c5.9,0,10.5-2,13.7-5.9c3.2-3.9,4.8-8.9,4.8-14.9
	c0-10.6-3.3-21.9-9.9-33.9c-7.5-13.7-16.2-20.6-26-20.6c-5.9,0-10.4,2.5-13.5,7.5c-2.6,4.2-3.8,9.4-3.8,15.7
	C584.7,372.8,587.9,383.7,594.2,395z"/>
<pattern  id="SVGID_6_" xlink:href="#_x31_0_lpi_50_x25_" patternTransform="matrix(0.5 -0.866 0.866 0.5 1973.9844 -9840.6455)">
</pattern>
<path fill="url(#SVGID_6_)" d="M710.7,331.8c0.5,1.2,0.8,3,0.8,5.4v3c0,2.7,0.5,4,1.4,4c0.4,0,1.1-0.5,2-1.6c0.3-0.4,0.6-0.8,1-1.2
	c3.4-3.8,7.5-6.7,12.3-8.8c4.8-2.1,9.9-3.1,15.1-3.1c6.6,0,11.6,1.3,15.1,3.8l10.5,11.3c4.6-4.2,8.8-7.6,12.7-10.3
	c4.4-3.1,9.4-4.6,14.9-4.6c12.9,0,22.9,11.4,29.9,34.3c3.6,14.1,6.1,23.3,7.4,27.6c1.3,4.3,2.5,8.4,3.7,12.3
	c1.7,4.4,4.2,7.7,7.5,9.7c2.4,1.3,3.8,2.2,4,2.4c1.2,1.1,1.8,2.5,1.8,4.2c0,1.5-0.5,2.8-1.6,3.8c-1.1,1.1-2.4,1.6-3.8,1.6h-43.2
	c-3.9,0-5.9-1.8-5.9-5.4l1-2.2c0.7-1.3,2.7-2.8,6.2-4.3c3.4-1.5,5.1-4,5.1-7.4c0-3.6-1.1-9.3-3.2-17.2c-1.6-5.7-3.4-11.4-5.4-17.2
	c-2.7-7.7-4.2-12-4.6-12.9c-2.7-5.4-5.8-8.1-9.3-8.1l-3.2-0.4c-3.8,0-6.8,1.6-9.1,4.9c-2.3,3.3-3.4,7-3.4,11v36.1
	c0,5.4,2,9.3,6,11.8c4,2.5,6,4.6,6,6.4c0,1.5-0.6,2.7-1.8,3.5c-1.2,0.9-2.6,1.3-4.2,1.3h-39.6c-3.8,0-5.6-1.6-5.6-4.8
	c0-2,0.9-3.6,2.8-4.8c4.8-3.2,7.6-7,8.3-11.3c0.3-1.3,0.5-3.4,0.6-6.2c0.1-2.8,0.2-4.8,0.2-6.2v-7.5l0.2-10.3
	c0-7.5-0.7-13.1-2.2-16.8c-2.4-5.8-6.8-8.7-13.1-8.7c-7.4,0-12.4,4.2-15.1,12.7c-1.6,5.1-2.4,12.4-2.4,22v9.5
	c0,3.1,0.2,6.5,0.6,10.1c0,5.9,2.5,10,7.5,12.1c2.4,1.1,3.6,2.7,3.6,4.8c0,1.3-0.7,2.6-2,3.6c-1.3,1.1-2.8,1.6-4.2,1.6H677
	c-1.2,0-2.5-0.6-3.8-1.7c-1.3-1.1-2-2.3-2-3.5c0-1.9,2-4,6.1-6.5c4-2.4,6.1-7.3,6.1-14.7v-32.9c0-3.8-2.9-6.9-8.7-9.5
	c-2.8-1.2-4.2-2.8-4.2-4.6c0-1.2,0.5-2.5,1.4-3.9c0.9-1.4,2-2.4,3-2.9c3.8-2.4,9.2-5.4,16.3-8.9c8.9-4.4,14.3-6.7,16.3-6.7
	C709.1,330,710.1,330.6,710.7,331.8z"/>
<pattern  id="SVGID_7_" xlink:href="#_x31_0_lpi_50_x25_" patternTransform="matrix(0.5 -0.866 0.866 0.5 1973.9844 -9840.6455)">
</pattern>
<path fill="url(#SVGID_7_)" d="M199.7,455.8l22.3,0.7c25,0,47.9,0.9,68.6,2.8c20.7,1.9,40.1,5.8,58,11.8
	c21.9,7.3,38.9,17.2,51.2,29.8c7,7.3,12.8,15.8,17.4,25.5c4.6,9.7,6.8,19.1,6.8,28.2c0,24.7-11.7,42.8-35.2,54.3
	c-19,9.3-44.2,13.9-75.4,13.9l-35.6-0.3c-3.9,0-8.3,0.1-13.3,0.2c-4.9,0.1-8.5,0.7-10.6,1.7s-3.4,3.1-3.9,6.3
	c-0.5,3.2-0.8,6.2-0.8,9.1v7c0,9.3,6,16.8,18,22.5c6,2.9,9,6.4,9,10.6c0,3.1-1.2,5.7-3.7,7.8c-2.5,2.1-5.7,3.1-9.6,3.1h-93.8
	c-4.9,0-8.6-0.8-10.9-2.5c-2.3-1.7-3.5-4.7-3.5-9.1c0-4.6,4.2-8.3,12.5-11.1c8.3-2.8,13-8.8,14.1-18.1c0-4.4,0.1-11.2,0.4-20.2
	c0.3-9.1,0.4-15.7,0.4-19.9c0,0-0.6-98.5-0.8-105.3s-22.4-25-60.7-25S58,491.6,58,515.8c0,24.2,20.2,37.5,30.3,36.3
	c10.4-1.2,12.1-22.2,34.3-22.2s32.3,18.2,18.2,40.4c-14.1,22.2-64.6,20.2-84.8,6.1c-20.2-14.1-36.3-52.5-26.2-78.7
	c10.1-26.2,26.2-32.3,48.4-36.3S191.9,455.8,199.7,455.8z M256.1,591.6c4.8,3.1,12.2,4.6,22.1,4.6c19.3,0,35.2-4.1,47.7-12.3
	c13.5-8.8,20.3-21.3,20.3-37.4c0-16.8-6.8-31.1-20.3-43.1c-13.5-11.9-30.4-17.9-50.4-17.9c-8.3,0-14.8,1.4-19.5,4.1s-7,7.5-7,14.1
	v70.9C248.9,582.9,251.3,588.5,256.1,591.6z"/>
<pattern  id="SVGID_8_" xlink:href="#_x31_0_lpi_50_x25_" patternTransform="matrix(0.5 -0.866 0.866 0.5 1973.9844 -9840.6455)">
</pattern>
<path fill="url(#SVGID_8_)" d="M441.8,573.5c-6.9-2.8-10.4-5.1-10.4-7.1c0-2,0.8-3.8,2.5-5.5c1.7-1.7,3.7-3,6.1-4.1
	c16.9-7.5,30.5-13.1,40.6-16.7c10.2-3.6,17.1-5.5,20.7-5.5l1.6,0.3l1.6,1.3c1,4.4,1.8,8.6,2.1,12.4c0.4,3.9,0.6,8.8,0.6,14.7
	c0,7.9-0.5,19.9-1.6,35.8c-1,15.9-1.6,27.8-1.6,35.8c0,4.2,0.1,8.2,0.2,11.9c0.1,3.8,0.8,8.1,2.1,13.1s5.5,9.1,12.7,12.3
	c7.2,3.2,10.7,6.6,10.7,10.1s-1.7,6-5.1,7.5c-3.4,1.4-7.3,2.2-11.7,2.2h-69.6c-3.4,0-6.6-0.9-9.6-2.7c-3-1.8-4.5-4-4.5-6.6
	c0-3.5,3.8-7.1,11.3-10.6c7.6-3.5,11.3-9.9,11.3-19.2v-65.6C452.1,580.9,448.7,576.3,441.8,573.5z M497.6,475.3
	c4.8,2.6,7.2,6.1,7.2,10.3c0,7.7-5.6,14.5-16.8,20.2c-9.9,5.1-19.8,7.6-29.7,7.6c-5.2,0-9.7-1.5-13.5-4.5c-3.8-3-5.7-6.6-5.7-10.8
	c0-6.4,5.2-12.5,15.6-18.2c10.4-5.7,19.7-8.6,27.7-8.6C487.8,471.3,492.8,472.7,497.6,475.3z"/>
<pattern  id="SVGID_9_" xlink:href="#_x31_0_lpi_50_x25_" patternTransform="matrix(0.5 -0.866 0.866 0.5 1973.9844 -9840.6455)">
</pattern>
<path fill="url(#SVGID_9_)" d="M545.1,503.1c-5.2-1.3-7.8-3.6-7.8-7c0-2.7,0.9-4.9,2.7-6.6c1.8-1.8,4.4-3.4,7.8-5l57.1-27.5l3.1-1h2
	c1.8,0,3.4,1.1,4.7,3.1c1.3,2.1,2,3.9,2,5.5v182.8l0.4,8c0.8,7.9,4.9,13.6,12.5,16.9c7.6,3.3,11.3,6.7,11.3,10.3
	c0,3.8-2.1,6.3-6.3,7.6c-4.2,1.3-8.9,2-14.1,2h-69.2c-3.6,0-7-0.9-10.2-2.7c-3.1-1.8-4.7-4.1-4.7-7c0-3.1,4-6.7,12.1-10.9
	c8.1-4.2,12.1-10.6,12.1-19.2V524.7C560.7,513.2,555.5,506,545.1,503.1z"/>
<pattern  id="SVGID_10_" xlink:href="#_x31_0_lpi_50_x25_" patternTransform="matrix(0.5 -0.866 0.866 0.5 1973.9844 -9840.6455)">
</pattern>
<path fill="url(#SVGID_10_)" d="M751,693.3c-29.7-0.7-53.9-7-72.7-20.9c-20.1-14.8-30.1-34.6-30.1-59.3c0-22.7,10.5-41.7,31.5-57
	c21-15.2,45.1-22.9,72.5-22.9c19,0,35.9,4.4,50.6,13.1c14.7,8.7,25.9,20.6,33.4,35.6c0.3,1.1,0.7,2.3,1.4,3.6c0.7,1.3,1,2.2,1,2.7
	c0,2.6-9.9,7.3-29.7,13.9l-55.5,17.9c-20.1,6.8-30.1,11.6-30.1,14.2c0,9.7,6.5,18,19.5,24.8c11.7,6.2,23.8,10.4,35.9,9.3
	c27.7-2.5,98-69.5,161.4-74c61.2-4.4,157.4,64.6,23.9,173.6c-140.1,114.4-202.6,17.4-199.8-12.1s20.2-48.4,68.6-48.4
	c48.4,0,48.8,31.8,113,14.1c62.9-17.3,71.5-64.6,52.5-88.8C936.4,554.1,825.4,695,751,693.3z M750.4,605.2
	c17.6-6.6,26.4-11.6,26.4-14.9c0-8.4-4.8-16.6-14.5-24.5c-9.6-7.9-19.4-11.9-29.3-11.9c-10.2,0-17.8,3-22.9,8.9
	c-5.1,6-7.6,13.6-7.6,22.9c0,5.1,1.1,11.3,3.3,18.5c2.2,7.3,5.4,10.9,9.6,10.9C721.2,615.1,732.9,611.8,750.4,605.2z"/>
<pattern  id="SVGID_11_" xlink:href="#_x31_0_lpi_50_x25_" patternTransform="matrix(0.5 -0.866 0.866 0.5 1977.9844 -9847.6455)">
</pattern>
<path fill="url(#SVGID_11_)" d="M681.1,471.5c4.8,4.2,7.3,9.2,7.3,15.1c0,6-2.3,10.6-7,13.8c-4.1,2.8-9.3,4.2-15.6,4.2
	c-6.5,0-11.7-1.6-15.7-4.8c-4.3-3.5-6.5-8.4-6.5-14.8c0-6,2-10.8,6.1-14.4c4.1-3.6,9.2-5.4,15.3-5.4
	C670.9,465.2,676.3,467.3,681.1,471.5z M658.7,491.6c2.9,5.2,6.3,7.8,10.1,7.8c2.4,0,4.2-0.8,5.5-2.3c1.3-1.6,1.9-3.6,1.9-6
	c0-4.3-1.3-8.8-4-13.6c-3-5.5-6.5-8.2-10.4-8.2c-2.4,0-4.2,1-5.4,3c-1,1.7-1.5,3.8-1.5,6.3C654.9,482.7,656.2,487.1,658.7,491.6z"/>
<pattern  id="SVGID_12_" xlink:href="#_x31_0_lpi_50_x25_" patternTransform="matrix(0.5 -0.866 0.866 0.5 1977.9844 -9847.6455)">
</pattern>
<path fill="url(#SVGID_12_)" d="M714.7,470.7c-0.3,1.3-0.5,2-0.7,2.2c-0.2,0.2-0.6,0.4-1.2,0.4c-0.6,0.1-1.1,0.1-1.3,0.1
	c-1-0.1-1.6-0.1-1.9-0.1c-0.8,0-1.4,0.1-1.8,0.3c-0.5,0.2-0.7,0.6-0.7,1.3v18.4c0,2.7,1.1,4.7,3.3,6c1.1,0.6,1.6,1.4,1.6,2.5
	c0,0.6-0.3,1.2-1,1.7c-0.6,0.5-1.6,0.7-2.9,0.7h-15c-1.9,0-2.9-0.9-2.9-2.7c0-0.8,0.9-1.7,2.8-2.7c1.9-1,2.8-2.6,2.8-5V475
	c0-0.6-0.2-1.1-0.6-1.3c-0.4-0.2-1-0.4-1.7-0.4c-0.8,0.1-1.4,0.1-1.7,0.1c-0.8,0-1.4-0.5-1.7-1.6s-0.5-2.2-0.5-3.2
	c0-0.5,0.1-0.9,0.4-1.1c0.3-0.3,0.8-0.4,1.6-0.4c0.6,0.1,1.1,0.1,1.5,0.1c0.4,0,0.8,0,1.2-0.1c0.4-0.1,0.6-0.3,0.6-0.6
	c0-0.3-0.1-0.8-0.4-1.5c-1.2-1.3-2.2-2.8-3.1-4.6c-0.9-1.7-1.3-3.4-1.3-5c0-2.6,1.5-4.9,4.4-6.7c2.5-1.6,5.2-2.3,8.2-2.3
	c3.4,0,6.2,0.5,8.3,1.5c3,1.3,4.4,3.6,4.4,6.6c0,1.4-0.6,2.7-1.9,3.8c-1.3,1.1-2.6,1.7-4,1.7c-1,0-2.2-0.2-3.6-0.7
	c-1.4-0.5-2.1-1.2-2.1-2c0-0.3,0.3-0.8,0.8-1.5c0.3-0.3,0.4-0.6,0.4-0.9c0-0.7-0.3-1.2-0.8-1.6c-0.5-0.3-1.1-0.5-1.8-0.5
	c-0.9,0-1.6,0.3-2.2,0.8c-0.6,0.5-0.9,1.2-0.9,2c0,1.2,1.4,3.2,4.2,6c1.6,1.6,2.5,2.7,2.9,3.5c0.4,0.8,0.6,1.3,0.8,1.5
	c0.2,0.2,0.5,0.3,0.9,0.4l1.1,0.1l2.9-0.1c0.9,0,1.6,0.1,2.1,0.2c0.6,0.2,0.8,0.6,0.8,1.2C715.1,468.6,715,469.5,714.7,470.7z"/>
<pattern  id="SVGID_13_" xlink:href="#_x31_0_lpi_50_x25_" patternTransform="matrix(0.5 -0.866 0.866 0.5 1977.9844 -9847.6455)">
</pattern>
<path fill="url(#SVGID_13_)" d="M755.4,465.8c0.2,0.4,0.7,0.7,1.5,0.8c0.9,0.1,1.6,0.2,2.3,0.1h2.6c0.9,0,1.8,0,2.7-0.1h0.7
	c0.4,0,0.9,0,1.4,0c0.5,0,1,0.1,1.3,0.3l0.2,1.1c0,0.6-0.1,1.5-0.4,2.6c-0.3,1.1-0.6,1.7-0.9,1.9c-0.3,0.2-0.8,0.3-1.5,0.3
	c-0.7,0.1-1.2,0.1-1.4,0.1h-2.7c-0.9,0-1.8,0-2.7-0.1l-2.1,0.1c-0.3,0.2-0.5,0.4-0.6,0.4c-0.4,0.3-0.6,0.6-0.6,1.1v18.4
	c0,1.6,0.3,2.9,1,3.8c0.6,0.9,1.8,1.4,3.4,1.4c0.9,0,1.8-0.3,2.8-0.8c2.6-1.3,4-2,4.4-2c0.5,0,1,0.3,1.5,0.8c0.2,0.3,0.3,0.6,0.3,1
	c0,2.3-1.9,4.2-5.8,5.8c-3.1,1.2-6.1,1.9-9,1.9c-2.3,0-4.5-0.6-6.7-1.7c-2.6-1.3-4-3.1-4-5.2c0-1.7,0.2-4.1,0.6-7.2
	c0.4-3.1,0.6-5.3,0.6-6.5v-1c0-1,0-1.9,0-2.9c0-1,0-2,0-3v-0.9c0-1.1-0.2-2-0.6-2.5c-0.4-0.6-1.1-0.8-2.2-0.8l-2.4,0.2
	c-1.4,0-2.1-0.7-2.1-2.1c0-0.2,0.1-0.5,0.2-0.8c0.1-0.3,0.4-0.7,0.8-1.1c0.8-1,1.6-2,2.7-3c1.8-1.7,2.7-2.7,2.9-2.8
	c1.2-1.3,2.4-2.6,3.5-3.9c1.2-1.3,2.2-2.7,3.3-4.3c0.3-0.4,0.5-0.8,0.6-1.1c0.2-0.3,0.4-0.6,0.6-0.8c0.5-0.6,1.1-0.9,1.9-0.9
	c0.6,0,1,0.2,1.4,0.7c0.3,0.5,0.5,1.3,0.5,2.5l-0.1,9.1L755.4,465.8z"/>
<pattern  id="SVGID_14_" xlink:href="#_x31_0_lpi_50_x25_" patternTransform="matrix(0.5 -0.866 0.866 0.5 1977.9844 -9847.6455)">
</pattern>
<path fill="url(#SVGID_14_)" d="M768.9,454.9c0.3-0.4,0.7-0.7,1.2-0.9c2.2-1.3,3.8-2.3,4.9-2.9c1.9-1.1,3.5-2.2,4.9-3.1
	c0.4-0.3,0.9-0.6,1.5-1c0.5-0.4,1-0.6,1.4-0.6c0.7,0,1.2,0.2,1.4,0.5c0.2,0.4,0.4,0.9,0.4,1.7l-0.2,14.3c0,1.2,0,2.6,0,4.1
	c0,1.5,0.1,2.6,0.4,3.2c0,0.1,0,0.1,0.1,0.1s0.2,0,0.4,0.1c0.4-0.2,1.9-1.2,4.5-3.1c1.5-1.1,3.4-1.6,5.6-1.6c2.5,0,4.6,0.8,6.3,2.3
	c1.9,1.7,3.7,5,5.2,9.9c0.7,2.2,1.5,4.9,2.3,8.1c1.1,4.4,1.9,7.2,2.2,8.4c0.3,1.2,1.3,2.6,3.1,4.4c1.7,1.8,2.6,2.8,2.6,3.1
	c0,0.9-0.4,1.4-1.1,1.7c-0.8,0.3-1.7,0.4-2.9,0.4h-1h-12.1h-1.5c-0.6,0-1.1-0.1-1.7-0.4c-0.5-0.3-0.8-0.7-0.8-1.3
	c0-0.9,0.4-1.7,1.1-2.3c1.8-1.5,2.7-2.9,2.7-4.3c0-1.6-0.6-4.6-1.7-9.2c-1.1-4.6-2-7.6-2.7-8.9c-0.7-1.3-1.3-2.3-2-2.8
	c-0.7-0.5-1.6-0.8-2.9-0.8c-2.2,0-3.7,0.7-4.6,2c-0.9,1.3-1.3,3.2-1.3,5.5v12.5c0,2.1,1.1,3.9,3.2,5.4c1.1,0.8,1.6,1.6,1.6,2.5
	c0,0.8-0.4,1.3-1.1,1.6c-0.8,0.3-1.6,0.5-2.6,0.5l-14.4,0.1c-0.8,0-1.4-0.2-2.1-0.7c-0.6-0.5-0.9-1-0.9-1.7c0-0.6,0.8-1.5,2.4-2.7
	c1.6-1.2,2.4-3.1,2.4-5.8l-0.1-30.8l-0.1-0.7c-0.2-1.5-1-2.5-2.4-3.1s-2.1-1.4-2.1-2.4C768.5,455.6,768.6,455.3,768.9,454.9z"/>
<pattern  id="SVGID_15_" xlink:href="#_x31_0_lpi_50_x25_" patternTransform="matrix(0.5 -0.866 0.866 0.5 1977.9844 -9847.6455)">
</pattern>
<path fill="url(#SVGID_15_)" d="M836.1,496.1c2.4,1.5,4.9,2.3,7.4,2.3c2.2,0,4.5-0.6,6.8-1.9l6.6-4.4c1,0,1.5,0.6,1.5,1.7
	c0,0.4-0.1,0.7-0.3,1.1c-0.2,0.3-0.4,0.7-0.7,1.1c-2.1,2.7-4.9,4.8-8.6,6.3c-3.6,1.5-7.3,2.2-11.1,2.2c-6.1,0-11.1-1.7-15-5.1
	c-4.1-3.6-6.2-8.4-6.2-14.4c0-5.5,2.2-10.2,6.5-13.9s9.3-5.6,15-5.6c3.9,0,7.4,1.1,10.5,3.2c3,2.1,5.3,5,6.9,8.7
	c0.1,0.3,0.1,0.6,0.3,0.9c0.1,0.3,0.2,0.5,0.2,0.6c0,0.6-2,1.8-6.1,3.4l-11.5,4.4c-4.1,1.7-6.2,2.8-6.2,3.5
	C832.1,492.4,833.4,494.4,836.1,496.1z M837.7,483c3.6-1.6,5.4-2.8,5.4-3.6c0-2-1-4-3-6c-2-1.9-4-2.9-6.1-2.9
	c-2.1,0-3.7,0.7-4.7,2.2c-1,1.5-1.6,3.3-1.6,5.6c0,1.2,0.2,2.7,0.7,4.5c0.5,1.8,1.1,2.7,2,2.7C831.6,485.4,834,484.6,837.7,483z"/>
<path fill="#FCEFD0" stroke="#1B1B1B" stroke-width="2" d="M841,490.7c2.4,1.5,4.9,2.3,7.4,2.3c2.2,0,4.5-0.6,6.8-1.9l6.6-4.4
	c1,0,1.5,0.6,1.5,1.7c0,0.4-0.1,0.7-0.3,1.1c-0.2,0.3-0.4,0.7-0.7,1.1c-2.1,2.7-4.9,4.8-8.6,6.3c-3.6,1.5-7.3,2.2-11.1,2.2
	c-6.1,0-11.1-1.7-15-5.1c-4.1-3.6-6.2-8.4-6.2-14.4c0-5.5,2.2-10.2,6.5-13.9c4.3-3.7,9.3-5.6,15-5.6c3.9,0,7.4,1.1,10.5,3.2
	c3,2.1,5.3,5,6.9,8.7c0.1,0.3,0.1,0.6,0.3,0.9s0.2,0.5,0.2,0.6c0,0.6-2,1.8-6.1,3.4l-11.5,4.4c-4.1,1.7-6.2,2.8-6.2,3.5
	C836.9,487,838.3,489,841,490.7z M842.5,477.5c3.6-1.6,5.4-2.8,5.4-3.6c0-2-1-4-3-6c-2-1.9-4-2.9-6.1-2.9c-2.1,0-3.7,0.7-4.7,2.2
	c-1,1.5-1.6,3.3-1.6,5.6c0,1.2,0.2,2.7,0.7,4.5c0.5,1.8,1.1,2.7,2,2.7C836.5,479.9,838.9,479.1,842.5,477.5z"/>
<path fill="#FCEFD0" stroke="#1B1B1B" stroke-width="2" d="M773.8,449.5c0.3-0.4,0.7-0.7,1.2-0.9c2.2-1.3,3.8-2.3,4.9-2.9
	c1.9-1.1,3.5-2.2,4.9-3.1c0.4-0.3,0.9-0.6,1.5-1c0.5-0.4,1-0.6,1.4-0.6c0.7,0,1.2,0.2,1.4,0.5s0.4,0.9,0.4,1.7l-0.2,14.3
	c0,1.2,0,2.6,0,4.1c0,1.5,0.1,2.6,0.4,3.2c0,0.1,0,0.1,0.1,0.1c0.1,0,0.2,0,0.4,0.1c0.4-0.2,1.9-1.2,4.5-3.1
	c1.5-1.1,3.4-1.6,5.6-1.6c2.5,0,4.6,0.8,6.3,2.3c1.9,1.7,3.7,5,5.2,9.9c0.7,2.2,1.5,4.9,2.3,8.1c1.1,4.4,1.9,7.2,2.2,8.4
	c0.3,1.2,1.3,2.6,3.1,4.4c1.7,1.8,2.6,2.8,2.6,3.1c0,0.9-0.4,1.4-1.1,1.7s-1.7,0.4-2.9,0.4h-1h-12.1h-1.5c-0.6,0-1.1-0.1-1.7-0.4
	c-0.5-0.3-0.8-0.7-0.8-1.3c0-0.9,0.4-1.7,1.1-2.3c1.8-1.5,2.7-2.9,2.7-4.3c0-1.6-0.6-4.6-1.7-9.2c-1.1-4.6-2-7.6-2.7-8.9
	c-0.7-1.3-1.3-2.3-2-2.8c-0.7-0.5-1.6-0.8-2.9-0.8c-2.2,0-3.7,0.7-4.6,2c-0.9,1.3-1.3,3.2-1.3,5.5v12.5c0,2.1,1.1,3.9,3.2,5.4
	c1.1,0.8,1.6,1.6,1.6,2.5c0,0.8-0.4,1.3-1.1,1.6c-0.8,0.3-1.6,0.5-2.6,0.5l-14.4,0.1c-0.8,0-1.4-0.2-2.1-0.7c-0.6-0.5-0.9-1-0.9-1.7
	c0-0.6,0.8-1.5,2.4-2.7c1.6-1.2,2.4-3.1,2.4-5.8l-0.1-30.8l-0.1-0.7c-0.2-1.5-1-2.5-2.4-3.1c-1.4-0.6-2.1-1.4-2.1-2.4
	C773.3,450.2,773.5,449.8,773.8,449.5z"/>
<path fill="#FCEFD0" stroke="#1B1B1B" stroke-width="2" d="M760.3,460.4c0.2,0.4,0.7,0.7,1.5,0.8c0.9,0.1,1.6,0.2,2.3,0.1h2.6
	c0.9,0,1.8,0,2.7-0.1h0.7c0.4,0,0.9,0,1.4,0c0.5,0,1,0.1,1.3,0.3l0.2,1.1c0,0.6-0.1,1.5-0.4,2.6c-0.3,1.1-0.6,1.7-0.9,1.9
	c-0.3,0.2-0.8,0.3-1.5,0.3c-0.7,0.1-1.2,0.1-1.4,0.1h-2.7c-0.9,0-1.8,0-2.7-0.1l-2.1,0.1c-0.3,0.2-0.5,0.4-0.6,0.4
	c-0.4,0.3-0.6,0.6-0.6,1.1v18.4c0,1.6,0.3,2.9,1,3.8c0.6,0.9,1.8,1.4,3.4,1.4c0.9,0,1.8-0.3,2.8-0.8c2.6-1.3,4-2,4.4-2
	c0.5,0,1,0.3,1.5,0.8c0.2,0.3,0.3,0.6,0.3,1c0,2.3-1.9,4.2-5.8,5.8c-3.1,1.2-6.1,1.9-9,1.9c-2.3,0-4.5-0.6-6.7-1.7
	c-2.6-1.3-4-3.1-4-5.2c0-1.7,0.2-4.1,0.6-7.2c0.4-3.1,0.6-5.3,0.6-6.5v-1c0-1,0-1.9,0-2.9c0-1,0-2,0-3V471c0-1.1-0.2-2-0.6-2.5
	c-0.4-0.6-1.1-0.8-2.2-0.8l-2.4,0.2c-1.4,0-2.1-0.7-2.1-2.1c0-0.2,0.1-0.5,0.2-0.8c0.1-0.3,0.4-0.7,0.8-1.1c0.8-1,1.6-2,2.7-3
	c1.8-1.7,2.7-2.7,2.9-2.8c1.2-1.3,2.4-2.6,3.5-3.9c1.2-1.3,2.2-2.7,3.3-4.3c0.3-0.4,0.5-0.8,0.6-1.1c0.2-0.3,0.4-0.6,0.6-0.8
	c0.5-0.6,1.1-0.9,1.9-0.9c0.6,0,1,0.2,1.4,0.7c0.3,0.5,0.5,1.3,0.5,2.5l-0.1,9.1L760.3,460.4z"/>
<path fill="#FCEFD0" stroke="#1B1B1B" stroke-width="2" d="M719.6,465.3c-0.3,1.3-0.5,2-0.7,2.2c-0.2,0.2-0.6,0.4-1.2,0.4
	c-0.6,0.1-1.1,0.1-1.3,0.1c-1-0.1-1.6-0.1-1.9-0.1c-0.8,0-1.4,0.1-1.8,0.3c-0.5,0.2-0.7,0.6-0.7,1.3v18.4c0,2.7,1.1,4.7,3.3,6
	c1.1,0.6,1.6,1.4,1.6,2.5c0,0.6-0.3,1.2-1,1.7c-0.6,0.5-1.6,0.7-2.9,0.7h-15c-1.9,0-2.9-0.9-2.9-2.7c0-0.8,0.9-1.7,2.8-2.7
	c1.9-1,2.8-2.6,2.8-5v-18.9c0-0.6-0.2-1.1-0.6-1.3c-0.4-0.2-1-0.4-1.7-0.4c-0.8,0.1-1.4,0.1-1.7,0.1c-0.8,0-1.4-0.5-1.7-1.6
	c-0.3-1.1-0.5-2.2-0.5-3.2c0-0.5,0.1-0.9,0.4-1.1c0.3-0.3,0.8-0.4,1.6-0.4c0.6,0.1,1.1,0.1,1.5,0.1c0.4,0,0.8,0,1.2-0.1
	c0.4-0.1,0.6-0.3,0.6-0.6c0-0.3-0.1-0.8-0.4-1.5c-1.2-1.3-2.2-2.8-3.1-4.6c-0.9-1.7-1.3-3.4-1.3-5c0-2.6,1.5-4.9,4.4-6.7
	c2.5-1.6,5.2-2.3,8.2-2.3c3.4,0,6.2,0.5,8.3,1.5c3,1.3,4.4,3.6,4.4,6.6c0,1.4-0.6,2.7-1.9,3.8c-1.3,1.1-2.6,1.7-4,1.7
	c-1,0-2.2-0.2-3.6-0.7c-1.4-0.5-2.1-1.2-2.1-2c0-0.3,0.3-0.8,0.8-1.5c0.3-0.3,0.4-0.6,0.4-0.9c0-0.7-0.3-1.2-0.8-1.6
	c-0.5-0.3-1.1-0.5-1.8-0.5c-0.9,0-1.6,0.3-2.2,0.8c-0.6,0.5-0.9,1.2-0.9,2c0,1.2,1.4,3.2,4.2,6c1.6,1.6,2.5,2.7,2.9,3.5
	c0.4,0.8,0.6,1.3,0.8,1.5c0.2,0.2,0.5,0.3,0.9,0.4l1.1,0.1l2.9-0.1c0.9,0,1.6,0.1,2.1,0.2c0.6,0.2,0.8,0.6,0.8,1.2
	C720,463.2,719.8,464,719.6,465.3z"/>
<path fill="#FCEFD0" stroke="#1B1B1B" stroke-width="2" d="M686,466.1c4.8,4.2,7.3,9.2,7.3,15.1c0,6-2.3,10.6-7,13.8
	c-4.1,2.8-9.3,4.2-15.6,4.2c-6.5,0-11.7-1.6-15.7-4.8c-4.3-3.5-6.5-8.4-6.5-14.8c0-6,2-10.8,6.1-14.4c4.1-3.6,9.2-5.4,15.3-5.4
	C675.8,459.8,681.2,461.9,686,466.1z M663.6,486.2c2.9,5.2,6.3,7.8,10.1,7.8c2.4,0,4.2-0.8,5.5-2.3c1.3-1.6,1.9-3.6,1.9-6
	c0-4.3-1.3-8.8-4-13.6c-3-5.5-6.5-8.2-10.4-8.2c-2.4,0-4.2,1-5.4,3c-1,1.7-1.5,3.8-1.5,6.3C659.8,477.3,661,481.6,663.6,486.2z"/>
<path fill="#FCEFD0" stroke="#1B1B1B" stroke-width="3" d="M759.9,680.8c-29.7-0.7-53.9-7-72.7-20.9c-20.1-14.8-30.1-34.6-30.1-59.3
	c0-22.7,10.5-41.7,31.5-57c21-15.2,45.1-22.9,72.5-22.9c19,0,35.9,4.4,50.6,13.1c14.7,8.7,25.9,20.6,33.4,35.6
	c0.3,1.1,0.7,2.3,1.4,3.6c0.7,1.3,1,2.2,1,2.7c0,2.6-9.9,7.3-29.7,13.9l-55.5,17.9c-20.1,6.8-30.1,11.6-30.1,14.2
	c0,9.7,6.5,18,19.5,24.8c11.7,6.2,23.8,10.4,35.9,9.3c27.7-2.5,98-69.5,161.4-74c61.2-4.4,157.4,64.6,23.9,173.6
	C832.8,870,770.3,773,773.2,743.5s20.2-48.4,68.6-48.4s48.8,31.8,113,14.1c62.9-17.3,71.5-64.6,52.5-88.8
	C945.3,541.6,834.2,682.6,759.9,680.8z M759.3,592.7c17.6-6.6,26.4-11.6,26.4-14.9c0-8.4-4.8-16.6-14.5-24.5
	c-9.6-7.9-19.4-11.9-29.3-11.9c-10.2,0-17.8,3-22.9,8.9c-5.1,6-7.6,13.6-7.6,22.9c0,5.1,1.1,11.3,3.3,18.5
	c2.2,7.3,5.4,10.9,9.6,10.9C730.1,602.7,741.7,599.3,759.3,592.7z"/>
<path fill="#FCEFD0" stroke="#1B1B1B" stroke-width="3" d="M554,490.7c-5.2-1.3-7.8-3.6-7.8-7c0-2.7,0.9-4.9,2.7-6.6
	c1.8-1.8,4.4-3.4,7.8-5l57.1-27.5l3.1-1h2c1.8,0,3.4,1.1,4.7,3.1c1.3,2.1,2,3.9,2,5.5v182.8l0.4,8c0.8,7.9,4.9,13.6,12.5,16.9
	c7.6,3.3,11.3,6.7,11.3,10.3c0,3.8-2.1,6.3-6.3,7.6c-4.2,1.3-8.9,2-14.1,2h-69.2c-3.6,0-7-0.9-10.2-2.7c-3.1-1.8-4.7-4.1-4.7-7
	c0-3.1,4-6.7,12.1-10.9c8.1-4.2,12.1-10.6,12.1-19.2V512.2C569.6,500.7,564.4,493.6,554,490.7z"/>
<path fill="#FCEFD0" stroke="#1B1B1B" stroke-width="3" d="M450.6,561.1c-6.9-2.8-10.4-5.1-10.4-7.1c0-2,0.8-3.8,2.5-5.5
	c1.7-1.7,3.7-3,6.1-4.1c16.9-7.5,30.5-13.1,40.6-16.7c10.2-3.6,17.1-5.5,20.7-5.5l1.6,0.3l1.6,1.3c1,4.4,1.8,8.6,2.1,12.4
	c0.4,3.9,0.6,8.8,0.6,14.7c0,7.9-0.5,19.9-1.6,35.8c-1,15.9-1.6,27.8-1.6,35.8c0,4.2,0.1,8.2,0.2,11.9s0.8,8.1,2.1,13.1
	s5.5,9.1,12.7,12.3c7.2,3.2,10.7,6.6,10.7,10.1s-1.7,6-5.1,7.5c-3.4,1.4-7.3,2.2-11.7,2.2h-69.6c-3.4,0-6.6-0.9-9.6-2.7
	c-3-1.8-4.5-4-4.5-6.6c0-3.5,3.8-7.1,11.3-10.6c7.6-3.5,11.3-9.9,11.3-19.2v-65.6C461,568.4,457.5,563.9,450.6,561.1z M506.5,462.9
	c4.8,2.6,7.2,6.1,7.2,10.3c0,7.7-5.6,14.5-16.8,20.2c-9.9,5.1-19.8,7.6-29.7,7.6c-5.2,0-9.7-1.5-13.5-4.5c-3.8-3-5.7-6.6-5.7-10.8
	c0-6.4,5.2-12.5,15.6-18.2c10.4-5.7,19.7-8.6,27.7-8.6C496.7,458.9,501.7,460.2,506.5,462.9z"/>
<path fill="#FCEFD0" stroke="#1B1B1B" stroke-width="3" d="M208.5,443.3l22.3,0.7c25,0,47.9,0.9,68.6,2.8c20.7,1.9,40.1,5.8,58,11.8
	c21.9,7.3,38.9,17.2,51.2,29.8c7,7.3,12.8,15.8,17.4,25.5c4.6,9.7,6.8,19.1,6.8,28.2c0,24.7-11.7,42.8-35.2,54.3
	c-19,9.3-44.2,13.9-75.4,13.9l-35.6-0.3c-3.9,0-8.3,0.1-13.3,0.2c-4.9,0.1-8.5,0.7-10.6,1.7s-3.4,3.1-3.9,6.3
	c-0.5,3.2-0.8,6.2-0.8,9.1v7c0,9.3,6,16.8,18,22.5c6,2.9,9,6.4,9,10.6c0,3.1-1.2,5.7-3.7,7.8c-2.5,2.1-5.7,3.1-9.6,3.1h-93.8
	c-4.9,0-8.6-0.8-10.9-2.5c-2.3-1.7-3.5-4.7-3.5-9.1c0-4.6,4.2-8.3,12.5-11.1c8.3-2.8,13-8.8,14.1-18.1c0-4.4,0.1-11.2,0.4-20.2
	c0.3-9.1,0.4-15.7,0.4-19.9c0,0-0.6-98.5-0.8-105.3s-22.4-25-60.7-25s-62.6,12.1-62.6,36.3c0,24.2,20.2,37.5,30.3,36.3
	c10.4-1.2,12.1-22.2,34.3-22.2s32.3,18.2,18.2,40.4c-14.1,22.2-64.6,20.2-84.8,6.1c-20.2-14.1-36.3-52.5-26.2-78.7
	s26.2-32.3,48.4-36.3S200.7,443.3,208.5,443.3z M265,579.1c4.8,3.1,12.2,4.6,22.1,4.6c19.3,0,35.2-4.1,47.7-12.3
	c13.5-8.8,20.3-21.3,20.3-37.4c0-16.8-6.8-31.1-20.3-43.1c-13.5-11.9-30.4-17.9-50.4-17.9c-8.3,0-14.8,1.4-19.5,4.1
	c-4.7,2.8-7,7.5-7,14.1v70.9C257.8,570.4,260.2,576.1,265,579.1z"/>
<path fill="#FCEFD0" stroke="#1B1B1B" stroke-width="3" d="M719.5,319.4c0.5,1.2,0.8,3,0.8,5.4v3c0,2.7,0.5,4,1.4,4
	c0.4,0,1.1-0.5,2-1.6c0.3-0.4,0.6-0.8,1-1.2c3.4-3.8,7.5-6.7,12.3-8.8c4.8-2.1,9.9-3.1,15.1-3.1c6.6,0,11.6,1.3,15.1,3.8l10.5,11.3
	c4.6-4.2,8.8-7.6,12.7-10.3c4.4-3.1,9.4-4.6,14.9-4.6c12.9,0,22.9,11.4,29.9,34.3c3.6,14.1,6.1,23.3,7.4,27.6
	c1.3,4.3,2.5,8.4,3.7,12.3c1.7,4.4,4.2,7.7,7.5,9.7c2.4,1.3,3.8,2.2,4,2.4c1.2,1.1,1.8,2.5,1.8,4.2c0,1.5-0.5,2.8-1.6,3.8
	c-1.1,1.1-2.4,1.6-3.8,1.6h-43.2c-3.9,0-5.9-1.8-5.9-5.4l1-2.2c0.7-1.3,2.7-2.8,6.2-4.3c3.4-1.5,5.1-4,5.1-7.4
	c0-3.6-1.1-9.3-3.2-17.2c-1.6-5.7-3.4-11.4-5.4-17.2c-2.7-7.7-4.2-12-4.6-12.9c-2.7-5.4-5.8-8.1-9.3-8.1l-3.2-0.4
	c-3.8,0-6.8,1.6-9.1,4.9c-2.3,3.3-3.4,7-3.4,11v36.1c0,5.4,2,9.3,6,11.8c4,2.5,6,4.6,6,6.4c0,1.5-0.6,2.7-1.8,3.5
	c-1.2,0.9-2.6,1.3-4.2,1.3h-39.6c-3.8,0-5.6-1.6-5.6-4.8c0-2,0.9-3.6,2.8-4.8c4.8-3.2,7.6-7,8.3-11.3c0.3-1.3,0.5-3.4,0.6-6.2
	c0.1-2.8,0.2-4.8,0.2-6.2v-7.5l0.2-10.3c0-7.5-0.7-13.1-2.2-16.8c-2.4-5.8-6.8-8.7-13.1-8.7c-7.4,0-12.4,4.2-15.1,12.7
	c-1.6,5.1-2.4,12.4-2.4,22v9.5c0,3.1,0.2,6.5,0.6,10.1c0,5.9,2.5,10,7.5,12.1c2.4,1.1,3.6,2.7,3.6,4.8c0,1.3-0.7,2.6-2,3.6
	c-1.3,1.1-2.8,1.6-4.2,1.6h-38.7c-1.2,0-2.5-0.6-3.8-1.7c-1.3-1.1-2-2.3-2-3.5c0-1.9,2-4,6.1-6.5c4-2.4,6.1-7.3,6.1-14.7v-32.9
	c0-3.8-2.9-6.9-8.7-9.5c-2.8-1.2-4.2-2.8-4.2-4.6c0-1.2,0.5-2.5,1.4-3.9c0.9-1.4,2-2.4,3-2.9c3.8-2.4,9.2-5.4,16.3-8.9
	c8.9-4.4,14.3-6.7,16.3-6.7C717.9,317.6,719,318.2,719.5,319.4z"/>
<path fill="#FCEFD0" stroke="#1B1B1B" stroke-width="3" d="M659.2,332.4c12.1,10.6,18.2,23.1,18.2,37.6c0,15.1-5.9,26.6-17.6,34.5
	c-10.2,7-23.2,10.5-38.9,10.5c-16.1,0-29.2-4-39.1-12.1c-10.8-8.7-16.1-21.1-16.1-36.9c0-15.1,5.1-27.1,15.2-36
	c10.2-8.9,22.9-13.4,38.2-13.4C633.7,316.6,647.1,321.8,659.2,332.4z M603.1,382.5c7.3,13.1,15.7,19.6,25.2,19.6
	c5.9,0,10.5-2,13.7-5.9c3.2-3.9,4.8-8.9,4.8-14.9c0-10.6-3.3-21.9-9.9-33.9c-7.5-13.7-16.2-20.6-26-20.6c-5.9,0-10.4,2.5-13.5,7.5
	c-2.6,4.2-3.8,9.4-3.8,15.7C593.6,360.4,596.8,371.2,603.1,382.5z"/>
<path fill="#FCEFD0" stroke="#1B1B1B" stroke-width="3" d="M532.9,318.2c0.4,1.1,1.7,1.8,3.8,2.1c2.2,0.3,4.1,0.4,5.9,0.3h6.6
	c2.2,0,4.5-0.1,6.8-0.2h1.8c1.1,0,2.3,0,3.5,0.1c1.3,0.1,2.4,0.3,3.3,0.7l0.6,2.6c0,1.6-0.4,3.8-1.1,6.5c-0.7,2.7-1.5,4.2-2.2,4.6
	c-0.7,0.4-2,0.7-3.7,0.8c-1.7,0.1-2.9,0.2-3.4,0.2h-6.9c-2.3,0-4.5-0.1-6.7-0.2l-5.2,0.2c-0.8,0.5-1.3,0.9-1.6,1
	c-0.9,0.7-1.4,1.6-1.4,2.8v46c0,4,0.8,7.2,2.4,9.6c1.6,2.4,4.4,3.5,8.5,3.5c2.2,0,4.5-0.7,7.1-2c6.5-3.4,10.1-5,10.9-5
	c1.3,0,2.6,0.7,3.6,2c0.5,0.7,0.8,1.5,0.8,2.4c0,5.8-4.8,10.6-14.5,14.5c-7.8,3.1-15.3,4.6-22.4,4.6c-5.6,0-11.2-1.4-16.8-4.2
	c-6.6-3.4-9.9-7.7-9.9-12.9c0-4.2,0.5-10.2,1.5-18c1-7.8,1.5-13.3,1.5-16.3v-2.4c0-2.4,0-4.8-0.1-7.3c-0.1-2.4-0.1-4.9-0.1-7.5v-2.2
	c0-2.8-0.5-4.9-1.4-6.4c-0.9-1.4-2.8-2.1-5.4-2.1l-6.1,0.4c-3.5,0-5.2-1.7-5.2-5.2c0-0.5,0.2-1.2,0.5-2c0.3-0.8,1-1.7,1.9-2.8
	c1.9-2.6,4.1-5,6.7-7.5c4.4-4.3,6.9-6.7,7.3-7.1c3-3.2,5.9-6.5,8.8-9.7c2.9-3.2,5.6-6.8,8.2-10.7c0.7-1.1,1.2-2,1.6-2.7
	c0.4-0.7,0.9-1.4,1.4-1.9c1.2-1.5,2.8-2.2,4.6-2.2c1.5,0,2.6,0.6,3.4,1.7c0.8,1.1,1.2,3.2,1.2,6.2l-0.2,22.8L532.9,318.2z"/>
<path fill="#FCEFD0" stroke="#1B1B1B" stroke-width="3" d="M458.6,318.2c0.4,1.1,1.7,1.8,3.8,2.1c2.2,0.3,4.1,0.4,5.9,0.3h6.6
	c2.2,0,4.5-0.1,6.8-0.2h1.8c1.1,0,2.3,0,3.5,0.1c1.3,0.1,2.4,0.3,3.3,0.7l0.6,2.6c0,1.6-0.4,3.8-1.1,6.5c-0.7,2.7-1.5,4.2-2.2,4.6
	c-0.7,0.4-2,0.7-3.7,0.8c-1.7,0.1-2.9,0.2-3.4,0.2h-6.9c-2.3,0-4.5-0.1-6.7-0.2l-5.2,0.2c-0.8,0.5-1.3,0.9-1.6,1
	c-0.9,0.7-1.4,1.6-1.4,2.8v46c0,4,0.8,7.2,2.4,9.6c1.6,2.4,4.4,3.5,8.5,3.5c2.2,0,4.5-0.7,7.1-2c6.5-3.4,10.1-5,10.9-5
	c1.3,0,2.6,0.7,3.6,2c0.5,0.7,0.8,1.5,0.8,2.4c0,5.8-4.8,10.6-14.5,14.5c-7.8,3.1-15.3,4.6-22.4,4.6c-5.6,0-11.2-1.4-16.7-4.2
	c-6.6-3.4-9.9-7.7-9.9-12.9c0-4.2,0.5-10.2,1.5-18c1-7.8,1.5-13.3,1.5-16.3v-2.4c0-2.4,0-4.8-0.1-7.3c-0.1-2.4-0.1-4.9-0.1-7.5v-2.2
	c0-2.8-0.5-4.9-1.4-6.4c-0.9-1.4-2.8-2.1-5.4-2.1l-6.1,0.4c-3.5,0-5.2-1.7-5.2-5.2c0-0.5,0.2-1.2,0.5-2c0.3-0.8,1-1.7,1.9-2.8
	c1.9-2.6,4.1-5,6.7-7.5c4.4-4.3,6.9-6.7,7.3-7.1c3-3.2,5.9-6.5,8.8-9.7c2.9-3.2,5.6-6.8,8.2-10.7c0.7-1.1,1.2-2,1.6-2.7
	c0.4-0.7,0.9-1.4,1.4-1.9c1.2-1.5,2.8-2.2,4.6-2.2c1.5,0,2.6,0.6,3.4,1.7c0.8,1.1,1.2,3.2,1.2,6.2l-0.2,22.8L458.6,318.2z"/>
<path fill="#FCEFD0" stroke="#1B1B1B" stroke-width="3" d="M395.5,332.4c12.1,10.6,18.2,23.1,18.2,37.6c0,15.1-5.9,26.6-17.6,34.5
	c-10.2,7-23.2,10.5-38.9,10.5c-16.1,0-29.2-4-39.1-12.1c-10.8-8.7-16.1-21.1-16.1-36.9c0-15.1,5.1-27.1,15.2-36
	c10.2-8.9,22.9-13.4,38.2-13.4C370,316.6,383.4,321.8,395.5,332.4z M339.4,382.5c7.3,13.1,15.7,19.6,25.2,19.6
	c5.9,0,10.5-2,13.7-5.9c3.2-3.9,4.8-8.9,4.8-14.9c0-10.6-3.3-21.9-9.9-33.9c-7.5-13.7-16.2-20.6-26-20.6c-5.9,0-10.4,2.5-13.5,7.5
	c-2.6,4.2-3.8,9.4-3.8,15.7C329.9,360.4,333,371.2,339.4,382.5z"/>
<path fill="#FCEFD0" stroke="#1B1B1B" stroke-width="3" d="M171.9,297c0-5.5-2.1-11.5-8.1-15.6c-6.1-4-14.1-6.1-28.3-6.1
	c-30.9,0.8-38.3,14.1-38.3,24.2c0,10.1,10.1,24.2,22.2,22.2s12.1-6.1,20.2-8.1c8.1-2,16.1,2,12.1,14.1c-4,12.1-48.4,22.2-60.5-2
	s-11.5-61.1,58.5-58.5c14.1,0.5,24.2,2,36.3,2c12.1,0,31.7,1.5,31.7,1.5c13.7,0,25.6,2.5,35.5,7.5c12.6,6.3,19,15.7,19,28.3
	c0,5.8-2,10.7-6.1,14.7c-3.1,3.1-7.8,5.9-14.1,8.5c13.2,2.6,23.7,6.9,31.5,13.1c9.7,7.7,14.5,17.6,14.5,29.7
	c0,12.2-4.3,21.7-12.9,28.5c-10.6,8.2-27.8,12.3-51.7,12.3h-70.6c-1.6,0-3-0.6-4.2-1.8s-1.8-2.6-1.8-4c0-1.7,0.4-3.1,1.2-4
	c0.9-1.5,3.4-2.7,7.3-3.6c3.9-0.9,5.9-3.8,5.9-8.7c0-2.8,0.1-7.7,0.4-14.7s0.4-10.7,0.4-11.1C171.9,365.2,171.9,302.5,171.9,297z
	 M231.8,291.3c-3.2-4-7.9-6.1-13.9-6.1c-4.4,0-7.4,1-8.9,2.9c-1.5,2-2.2,5.2-2.2,9.8v11.1c0,3,0.1,5.2,0.4,6.7
	c0.9,4.7,3.3,7.1,7.1,7.1c6.5,0,11.5-1.1,15.1-3.4c4.4-2.8,6.7-7.3,6.7-13.3C236.1,299.9,234.6,295,231.8,291.3z M245.8,390.6
	c5.9-5.1,8.8-12.6,8.8-22.6c0-10.9-3-19.1-9.1-24.6c-6.1-5.5-14.5-8.3-25.4-8.3c-5.5,0-9.1,1.3-10.8,4c-1.7,2.7-2.5,7-2.5,12.9v34.5
	c0,5,1.3,8.3,4,9.9c2,1.2,5.7,1.8,11.1,1.8C232,398.3,240,395.7,245.8,390.6z"/>
</svg>
